<svg width="243" height="242" xmlns="http://www.w3.org/2000/svg" xmlns:xlink="http://www.w3.org/1999/xlink" overflow="hidden"><defs><clipPath id="clip0"><rect x="497" y="216" width="243" height="242"/></clipPath></defs><g clip-path="url(#clip0)" transform="translate(-497 -216)"><path d="M497 337.5C497 270.95 551.174 217 618 217 684.826 217 739 270.95 739 337.5 739 404.05 684.826 458 618 458 551.174 458 497 404.05 497 337.5Z" fill="#149E91" fill-rule="evenodd"/><path d="M717.646 362.235C710.823 386.929 693.241 408.102 672.408 420.29 654.799 430.592 635.502 434.661 618.376 434.427 615.18 434.383 612.035 434.195 608.982 433.879 589.69 431.886 574.087 424.839 563.04 417.438 552.035 410.065 545.633 402.809 542.067 398.361 538.514 393.93 536.417 390.462 535.298 388.353 534.182 386.249 533.52 384.578 533.227 383.394 532.936 382.214 532.819 381.119 532.865 380.118 532.911 379.121 533.296 378.454 533.994 378.115 534.812 377.716 535.675 377.767 536.59 378.241 537.502 378.713 538.577 379.706 539.876 381.177 541.171 382.645 542.77 384.706 544.82 387.258 546.866 389.807 549.33 392.713 552.355 395.829 555.757 399.333 561.219 404.777 569.856 410.431 578.528 416.108 590.709 421.874 606.183 424.237 610.068 424.831 614.189 425.204 618.488 425.299 631.304 425.583 645.876 423.238 660.088 416.692 679.061 407.952 698.799 390.02 707.378 364.836 710.653 355.223 711.94 345.698 711.873 336.945 711.813 329.227 710.687 322.09 708.953 315.747 705.273 302.289 698.94 292.296 693.239 285.447 687.562 278.626 682.257 274.471 678.518 272.061 674.819 269.677 672.639 268.952 672.227 269.47 671.587 270.273 675.41 273.617 681.721 281.189 687.98 288.697 695.431 299.745 699.372 314.877 701.149 321.7 702.106 329.185 701.875 337.068 701.592 346.698 699.462 356.978 694.998 366.823 686.986 384.495 671.519 399.372 653.421 407.088 642.326 411.818 630.196 413.985 618.397 413.588 610.944 413.336 603.62 412.084 596.687 409.903 578.985 404.337 565.455 392.931 557.484 381.115 549.622 369.463 547.148 357.867 547.104 349.414 547.06 341.117 549.259 337.029 551.333 337.029 553.918 337.028 555.531 342.841 560.316 352.341 564.973 361.587 573.745 374.277 589.248 382.023 597.486 386.139 607.625 388.713 618.353 388.214 627.589 387.785 637.504 385.063 646.22 379.468 660.45 370.642 670.258 353.546 670.028 336.981 669.931 329.936 668.216 322.884 665.114 316.611 665.114 316.611 665.114 316.61 665.114 316.61 658.963 303.435 646.094 293.008 631.949 289.219 627.422 287.963 622.852 287.336 618.455 287.241 609.604 287.049 601.305 288.997 594.386 292.121 584.008 296.806 576.817 303.962 572.335 310.285 567.819 316.655 565.834 322.213 564.678 325.671 563.51 329.163 562.683 331.938 561.805 333.926 560.912 335.95 559.819 337.021 558.322 337.021 557.336 337.021 556.544 336.645 555.961 335.879 555.376 335.111 554.938 333.939 554.703 332.382 554.467 330.825 554.435 328.883 554.728 326.553 555.02 324.232 555.602 321.364 556.72 318.031 558.081 313.972 560.719 308.043 565.997 301.599 571.241 295.194 579.206 288.073 590.3 283.284 598.244 279.855 607.947 277.614 618.514 277.932 622.651 278.056 626.931 278.585 631.218 279.578 646.284 283.07 663.21 293.424 672.371 310.458 677.145 319.334 679.15 328.7 679.308 337.028 679.344 338.913 679.29 340.742 679.159 342.539 678.451 352.218 675.446 360.462 672.069 366.857 668.668 373.297 665.148 377.711 662.83 380.773 660.485 383.87 659.366 385.586 659.922 386.245 660.563 387.005 664.327 385.585 670.009 380.451 675.751 375.263 682.593 366.88 686.588 354.672 688.342 349.312 689.483 343.373 689.706 337.048 689.999 328.767 688.691 319.768 685.257 311.003 679.206 295.558 666.628 281.628 650.834 273.601 640.783 268.492 629.574 265.694 618.483 265.283 611.864 265.038 605.295 265.599 598.93 266.943 581.79 270.565 567.388 279.588 557.377 289.807 547.233 300.163 541.577 311.149 538.029 319.664 534.421 328.326 532.758 333.116 530.618 333.019 528.444 332.919 525.912 325.762 528.23 311.929 530.588 297.859 539.361 276.597 561.169 260.178 575.331 249.516 595.368 241.163 618.335 240.604 631.588 240.282 645.921 242.506 659.747 248.141 691.133 260.933 720.929 296.55 721.024 337.076 721.044 345.426 719.939 353.937 717.646 362.235Z" fill="#FFFFFF" fill-rule="evenodd"/><text fill="#000000" fill-opacity="0" font-family="Arial,Arial_MSFontService,sans-serif" font-size="193.862" x="527.309" y="410.204">s</text></g></svg>